<svg xmlns="http://www.w3.org/2000/svg" viewBox="0 0 64 64" role="img" aria-label="Rover compass favicon">
  <defs>
    <linearGradient id="bg" x1="0" y1="0" x2="1" y2="1">
      <stop offset="0%" stop-color="#0f172a"/>
      <stop offset="100%" stop-color="#1e293b"/>
    </linearGradient>
    <linearGradient id="needle" x1="0" y1="0" x2="1" y2="1">
      <stop offset="0%" stop-color="#38bdf8"/>
      <stop offset="100%" stop-color="#818cf8"/>
    </linearGradient>
  </defs>

  <rect x="4" y="4" width="56" height="56" rx="14" fill="url(#bg)"/>

  <circle cx="32" cy="32" r="16" fill="none" stroke="#e2e8f0" stroke-width="3"/>
  <circle cx="32" cy="32" r="2.6" fill="#f8fafc"/>

  <path d="M32 16.8l3.4 6.4L32 24.8l-3.4-1.6z" fill="#e2e8f0" opacity="0.95"/>
  <path d="M47.2 32l-6.4 3.4-1.6-3.4 1.6-3.4z" fill="#e2e8f0" opacity="0.95"/>
  <path d="M32 47.2l-3.4-6.4 3.4-1.6 3.4 1.6z" fill="#e2e8f0" opacity="0.95"/>
  <path d="M16.8 32l6.4-3.4 1.6 3.4-1.6 3.4z" fill="#e2e8f0" opacity="0.95"/>

  <path d="M32 19l10.5 10.5-7 2.5-2.5 7L22.5 28.5z" fill="url(#needle)"/>
  <path d="M32 45l-10.5-10.5 7-2.5 2.5-7L41.5 35.5z" fill="#334155" opacity="0.95"/>
</svg>